<mxfile host="Electron" agent="Mozilla/5.0 (Windows NT 10.0; Win64; x64) AppleWebKit/537.36 (KHTML, like Gecko) draw.io/28.0.4 Chrome/138.0.7204.97 Electron/37.2.1 Safari/537.36" version="28.0.4">
  <diagram name="第 1 页" id="awcvhqR4KiHhH5XU-w85">
    <mxGraphModel dx="1213" dy="828" grid="1" gridSize="10" guides="1" tooltips="1" connect="1" arrows="1" fold="1" page="1" pageScale="1" pageWidth="827" pageHeight="1169" math="0" shadow="0">
      <root>
        <mxCell id="0" />
        <mxCell id="1" parent="0" />
        <mxCell id="luFY3iUIOcpAaJHqbW-5-12" style="edgeStyle=orthogonalEdgeStyle;rounded=0;orthogonalLoop=1;jettySize=auto;html=1;entryX=0.5;entryY=0;entryDx=0;entryDy=0;" edge="1" parent="1" source="luFY3iUIOcpAaJHqbW-5-1" target="luFY3iUIOcpAaJHqbW-5-3">
          <mxGeometry relative="1" as="geometry" />
        </mxCell>
        <mxCell id="luFY3iUIOcpAaJHqbW-5-1" value="开始" style="rounded=1;whiteSpace=wrap;html=1;" vertex="1" parent="1">
          <mxGeometry x="330" y="130" width="120" height="60" as="geometry" />
        </mxCell>
        <mxCell id="luFY3iUIOcpAaJHqbW-5-2" value="结束" style="rounded=1;whiteSpace=wrap;html=1;" vertex="1" parent="1">
          <mxGeometry x="210" y="810" width="120" height="60" as="geometry" />
        </mxCell>
        <mxCell id="luFY3iUIOcpAaJHqbW-5-13" style="edgeStyle=orthogonalEdgeStyle;rounded=0;orthogonalLoop=1;jettySize=auto;html=1;entryX=0.5;entryY=0;entryDx=0;entryDy=0;" edge="1" parent="1" source="luFY3iUIOcpAaJHqbW-5-3" target="luFY3iUIOcpAaJHqbW-5-8">
          <mxGeometry relative="1" as="geometry" />
        </mxCell>
        <mxCell id="luFY3iUIOcpAaJHqbW-5-14" value="有" style="edgeLabel;html=1;align=center;verticalAlign=middle;resizable=0;points=[];" vertex="1" connectable="0" parent="luFY3iUIOcpAaJHqbW-5-13">
          <mxGeometry x="-0.3476" y="1" relative="1" as="geometry">
            <mxPoint as="offset" />
          </mxGeometry>
        </mxCell>
        <mxCell id="luFY3iUIOcpAaJHqbW-5-15" style="edgeStyle=orthogonalEdgeStyle;rounded=0;orthogonalLoop=1;jettySize=auto;html=1;entryX=0.5;entryY=0;entryDx=0;entryDy=0;exitX=1;exitY=0.5;exitDx=0;exitDy=0;" edge="1" parent="1" source="luFY3iUIOcpAaJHqbW-5-3" target="luFY3iUIOcpAaJHqbW-5-10">
          <mxGeometry relative="1" as="geometry" />
        </mxCell>
        <mxCell id="luFY3iUIOcpAaJHqbW-5-16" value="否" style="edgeLabel;html=1;align=center;verticalAlign=middle;resizable=0;points=[];" vertex="1" connectable="0" parent="luFY3iUIOcpAaJHqbW-5-15">
          <mxGeometry x="-0.2932" y="2" relative="1" as="geometry">
            <mxPoint as="offset" />
          </mxGeometry>
        </mxCell>
        <mxCell id="luFY3iUIOcpAaJHqbW-5-3" value="是否有账号" style="rhombus;whiteSpace=wrap;html=1;" vertex="1" parent="1">
          <mxGeometry x="350" y="230" width="80" height="80" as="geometry" />
        </mxCell>
        <mxCell id="luFY3iUIOcpAaJHqbW-5-18" style="edgeStyle=orthogonalEdgeStyle;rounded=0;orthogonalLoop=1;jettySize=auto;html=1;entryX=0;entryY=0.5;entryDx=0;entryDy=0;exitX=0;exitY=0.5;exitDx=0;exitDy=0;" edge="1" parent="1" source="luFY3iUIOcpAaJHqbW-5-4" target="luFY3iUIOcpAaJHqbW-5-8">
          <mxGeometry relative="1" as="geometry" />
        </mxCell>
        <mxCell id="luFY3iUIOcpAaJHqbW-5-20" value="匹配失败" style="edgeLabel;html=1;align=center;verticalAlign=middle;resizable=0;points=[];" vertex="1" connectable="0" parent="luFY3iUIOcpAaJHqbW-5-18">
          <mxGeometry x="-0.8042" y="3" relative="1" as="geometry">
            <mxPoint x="-24" y="-33" as="offset" />
          </mxGeometry>
        </mxCell>
        <mxCell id="luFY3iUIOcpAaJHqbW-5-35" style="edgeStyle=orthogonalEdgeStyle;rounded=0;orthogonalLoop=1;jettySize=auto;html=1;entryX=0.5;entryY=0;entryDx=0;entryDy=0;" edge="1" parent="1" source="luFY3iUIOcpAaJHqbW-5-4" target="luFY3iUIOcpAaJHqbW-5-34">
          <mxGeometry relative="1" as="geometry" />
        </mxCell>
        <mxCell id="luFY3iUIOcpAaJHqbW-5-36" value="匹配成功" style="edgeLabel;html=1;align=center;verticalAlign=middle;resizable=0;points=[];" vertex="1" connectable="0" parent="luFY3iUIOcpAaJHqbW-5-35">
          <mxGeometry x="0.3867" y="-1" relative="1" as="geometry">
            <mxPoint x="1" y="-5" as="offset" />
          </mxGeometry>
        </mxCell>
        <mxCell id="luFY3iUIOcpAaJHqbW-5-4" value="信息匹配" style="rhombus;whiteSpace=wrap;html=1;" vertex="1" parent="1">
          <mxGeometry x="230" y="400" width="80" height="80" as="geometry" />
        </mxCell>
        <mxCell id="luFY3iUIOcpAaJHqbW-5-23" style="edgeStyle=orthogonalEdgeStyle;rounded=0;orthogonalLoop=1;jettySize=auto;html=1;entryX=0.5;entryY=0;entryDx=0;entryDy=0;" edge="1" parent="1" source="luFY3iUIOcpAaJHqbW-5-5" target="luFY3iUIOcpAaJHqbW-5-9">
          <mxGeometry relative="1" as="geometry" />
        </mxCell>
        <mxCell id="luFY3iUIOcpAaJHqbW-5-38" value="是" style="edgeLabel;html=1;align=center;verticalAlign=middle;resizable=0;points=[];" vertex="1" connectable="0" parent="luFY3iUIOcpAaJHqbW-5-23">
          <mxGeometry x="-0.0222" y="3" relative="1" as="geometry">
            <mxPoint as="offset" />
          </mxGeometry>
        </mxCell>
        <mxCell id="luFY3iUIOcpAaJHqbW-5-24" style="edgeStyle=orthogonalEdgeStyle;rounded=0;orthogonalLoop=1;jettySize=auto;html=1;entryX=0.5;entryY=0;entryDx=0;entryDy=0;" edge="1" parent="1" source="luFY3iUIOcpAaJHqbW-5-5" target="luFY3iUIOcpAaJHqbW-5-11">
          <mxGeometry relative="1" as="geometry" />
        </mxCell>
        <mxCell id="luFY3iUIOcpAaJHqbW-5-39" value="否" style="edgeLabel;html=1;align=center;verticalAlign=middle;resizable=0;points=[];" vertex="1" connectable="0" parent="luFY3iUIOcpAaJHqbW-5-24">
          <mxGeometry x="0.0722" y="-3" relative="1" as="geometry">
            <mxPoint as="offset" />
          </mxGeometry>
        </mxCell>
        <mxCell id="luFY3iUIOcpAaJHqbW-5-5" value="是否是超级管理员" style="rhombus;whiteSpace=wrap;html=1;" vertex="1" parent="1">
          <mxGeometry x="230" y="610" width="80" height="80" as="geometry" />
        </mxCell>
        <mxCell id="luFY3iUIOcpAaJHqbW-5-17" style="edgeStyle=orthogonalEdgeStyle;rounded=0;orthogonalLoop=1;jettySize=auto;html=1;entryX=0.5;entryY=0;entryDx=0;entryDy=0;" edge="1" parent="1" source="luFY3iUIOcpAaJHqbW-5-8" target="luFY3iUIOcpAaJHqbW-5-4">
          <mxGeometry relative="1" as="geometry" />
        </mxCell>
        <mxCell id="luFY3iUIOcpAaJHqbW-5-8" value="输入账号密码" style="rounded=0;whiteSpace=wrap;html=1;" vertex="1" parent="1">
          <mxGeometry x="210" y="310" width="120" height="60" as="geometry" />
        </mxCell>
        <mxCell id="luFY3iUIOcpAaJHqbW-5-25" style="edgeStyle=orthogonalEdgeStyle;rounded=0;orthogonalLoop=1;jettySize=auto;html=1;entryX=0.5;entryY=0;entryDx=0;entryDy=0;" edge="1" parent="1" source="luFY3iUIOcpAaJHqbW-5-9" target="luFY3iUIOcpAaJHqbW-5-2">
          <mxGeometry relative="1" as="geometry" />
        </mxCell>
        <mxCell id="luFY3iUIOcpAaJHqbW-5-9" value="进入超级管理员界面" style="rounded=0;whiteSpace=wrap;html=1;" vertex="1" parent="1">
          <mxGeometry x="100" y="690" width="120" height="60" as="geometry" />
        </mxCell>
        <mxCell id="luFY3iUIOcpAaJHqbW-5-29" style="edgeStyle=orthogonalEdgeStyle;rounded=0;orthogonalLoop=1;jettySize=auto;html=1;entryX=0.5;entryY=0;entryDx=0;entryDy=0;" edge="1" parent="1" source="luFY3iUIOcpAaJHqbW-5-10" target="luFY3iUIOcpAaJHqbW-5-28">
          <mxGeometry relative="1" as="geometry" />
        </mxCell>
        <mxCell id="luFY3iUIOcpAaJHqbW-5-10" value="输入基本信息和邮箱" style="rounded=0;whiteSpace=wrap;html=1;" vertex="1" parent="1">
          <mxGeometry x="450" y="320" width="120" height="60" as="geometry" />
        </mxCell>
        <mxCell id="luFY3iUIOcpAaJHqbW-5-26" style="edgeStyle=orthogonalEdgeStyle;rounded=0;orthogonalLoop=1;jettySize=auto;html=1;entryX=0.5;entryY=0;entryDx=0;entryDy=0;" edge="1" parent="1" source="luFY3iUIOcpAaJHqbW-5-11" target="luFY3iUIOcpAaJHqbW-5-2">
          <mxGeometry relative="1" as="geometry" />
        </mxCell>
        <mxCell id="luFY3iUIOcpAaJHqbW-5-11" value="进入用户界面" style="rounded=0;whiteSpace=wrap;html=1;" vertex="1" parent="1">
          <mxGeometry x="320" y="690" width="120" height="60" as="geometry" />
        </mxCell>
        <mxCell id="luFY3iUIOcpAaJHqbW-5-31" style="edgeStyle=orthogonalEdgeStyle;rounded=0;orthogonalLoop=1;jettySize=auto;html=1;" edge="1" parent="1" source="luFY3iUIOcpAaJHqbW-5-28" target="luFY3iUIOcpAaJHqbW-5-30">
          <mxGeometry relative="1" as="geometry" />
        </mxCell>
        <mxCell id="luFY3iUIOcpAaJHqbW-5-28" value="邮箱验证" style="rounded=0;whiteSpace=wrap;html=1;" vertex="1" parent="1">
          <mxGeometry x="450" y="430" width="120" height="60" as="geometry" />
        </mxCell>
        <mxCell id="luFY3iUIOcpAaJHqbW-5-32" style="edgeStyle=orthogonalEdgeStyle;rounded=0;orthogonalLoop=1;jettySize=auto;html=1;entryX=1;entryY=0.5;entryDx=0;entryDy=0;" edge="1" parent="1" source="luFY3iUIOcpAaJHqbW-5-30" target="luFY3iUIOcpAaJHqbW-5-34">
          <mxGeometry relative="1" as="geometry" />
        </mxCell>
        <mxCell id="luFY3iUIOcpAaJHqbW-5-41" value="验证成功" style="edgeLabel;html=1;align=center;verticalAlign=middle;resizable=0;points=[];" vertex="1" connectable="0" parent="luFY3iUIOcpAaJHqbW-5-32">
          <mxGeometry x="-0.5704" y="5" relative="1" as="geometry">
            <mxPoint as="offset" />
          </mxGeometry>
        </mxCell>
        <mxCell id="luFY3iUIOcpAaJHqbW-5-42" style="edgeStyle=orthogonalEdgeStyle;rounded=0;orthogonalLoop=1;jettySize=auto;html=1;entryX=1;entryY=0.5;entryDx=0;entryDy=0;exitX=1;exitY=0.5;exitDx=0;exitDy=0;" edge="1" parent="1" source="luFY3iUIOcpAaJHqbW-5-30" target="luFY3iUIOcpAaJHqbW-5-10">
          <mxGeometry relative="1" as="geometry">
            <Array as="points">
              <mxPoint x="620" y="580" />
              <mxPoint x="620" y="350" />
            </Array>
          </mxGeometry>
        </mxCell>
        <mxCell id="luFY3iUIOcpAaJHqbW-5-43" value="验证失败" style="edgeLabel;html=1;align=center;verticalAlign=middle;resizable=0;points=[];" vertex="1" connectable="0" parent="luFY3iUIOcpAaJHqbW-5-42">
          <mxGeometry x="-0.101" y="2" relative="1" as="geometry">
            <mxPoint as="offset" />
          </mxGeometry>
        </mxCell>
        <mxCell id="luFY3iUIOcpAaJHqbW-5-30" value="是否验证成功" style="rhombus;whiteSpace=wrap;html=1;" vertex="1" parent="1">
          <mxGeometry x="470" y="540" width="80" height="80" as="geometry" />
        </mxCell>
        <mxCell id="luFY3iUIOcpAaJHqbW-5-37" style="edgeStyle=orthogonalEdgeStyle;rounded=0;orthogonalLoop=1;jettySize=auto;html=1;entryX=0.5;entryY=0;entryDx=0;entryDy=0;" edge="1" parent="1" source="luFY3iUIOcpAaJHqbW-5-34" target="luFY3iUIOcpAaJHqbW-5-5">
          <mxGeometry relative="1" as="geometry" />
        </mxCell>
        <mxCell id="luFY3iUIOcpAaJHqbW-5-34" value="用户角色判断" style="rounded=0;whiteSpace=wrap;html=1;" vertex="1" parent="1">
          <mxGeometry x="210" y="510" width="120" height="60" as="geometry" />
        </mxCell>
      </root>
    </mxGraphModel>
  </diagram>
</mxfile>
